<svg width="32" height="32" viewBox="0 0 32 32" fill="none" xmlns="http://www.w3.org/2000/svg">
<path d="M24.7638 8.35663C23.9358 9.17373 22.5934 9.17373 21.7664 8.35663L19.0187 5.64511C17.6893 4.33409 15.8816 3.78905 14.1498 3.99994C14.5568 4.50755 14.802 5.14846 14.802 5.84596C14.802 7.49205 13.4494 8.82681 11.7805 8.82681C10.8119 8.82681 9.95153 8.37489 9.39923 7.67464C8.60269 9.73978 9.04213 12.1628 10.7277 13.8262L15.8539 18.8841C16.6837 19.7039 16.6837 21.0314 15.8539 21.8512C15.0231 22.6701 13.678 22.6701 12.8472 21.8512L7.96065 17.0289C4.01312 13.1333 4.01312 6.81736 7.96065 2.92173C11.9091 -0.973909 18.3082 -0.973909 22.2558 2.92173L24.7638 5.39678C25.5918 6.21389 25.5918 7.53861 24.7638 8.3548M23.0384 14.9729L18.1519 10.1506C17.322 9.33168 15.976 9.33168 15.1461 10.1506C14.3163 10.9705 14.3163 12.2979 15.1461 13.1178L20.2714 18.1756C21.9569 19.839 22.3973 22.263 21.6008 24.3272C21.0475 23.6269 20.1881 23.175 19.2186 23.175C17.5506 23.175 16.1971 24.5098 16.1971 26.1559C16.1971 26.8534 16.4422 27.4943 16.8493 28.0019C15.1184 28.2128 13.3098 27.6677 11.9813 26.3567L9.23363 23.6452C8.40564 22.8281 7.06327 22.8281 6.23621 23.6452C5.40821 24.4623 5.40821 25.787 6.23621 26.6032L8.74423 29.0783C12.6918 32.9739 19.0918 32.9739 23.0394 29.0783C26.9869 25.1826 26.9869 18.8667 23.0394 14.9711" fill="#F2BC1E"/>
</svg>
