<svg width="256" height="256" viewBox="0 0 256 256" fill="none" xmlns="http://www.w3.org/2000/svg">
<path d="M198.11 66.853C191.486 73.3899 180.748 73.3899 174.131 66.853L152.15 45.1609C141.515 34.6727 127.053 30.3124 113.198 31.9995C116.455 36.0604 118.416 41.1877 118.416 46.7677C118.416 59.9364 107.596 70.6145 94.2441 70.6145C86.4952 70.6145 79.6122 66.9991 75.1938 61.3971C68.8215 77.9182 72.337 97.3024 85.8217 110.61L126.831 151.073C133.47 157.631 133.47 168.251 126.831 174.81C120.185 181.361 109.424 181.361 102.778 174.81L63.6852 136.231C32.1049 105.066 32.1049 54.5389 63.6852 23.3738C95.2728 -7.79127 146.466 -7.79127 178.046 23.3738L198.11 43.1743C204.734 49.7111 204.734 60.3089 198.11 66.8384M184.307 119.783L145.215 81.2049C138.576 74.6534 127.808 74.6534 121.169 81.2049C114.53 87.7637 114.53 98.3833 121.169 104.942L162.171 145.405C175.656 158.712 179.178 178.104 172.806 194.617C168.38 189.016 161.505 185.4 153.749 185.4C140.404 185.4 129.577 196.078 129.577 209.247C129.577 214.827 131.538 219.954 134.794 224.015C120.947 225.702 106.478 221.342 95.8501 210.854L73.869 189.162C67.2451 182.625 56.5062 182.625 49.8896 189.162C43.2657 195.698 43.2657 206.296 49.8896 212.826L69.9539 232.626C101.534 263.791 152.735 263.791 184.315 232.626C215.895 201.461 215.895 150.934 184.315 119.769" fill="#F2BC1E"/>
</svg>
